<svg width="96" height="96" viewBox="0 0 96 96" fill="none" xmlns="http://www.w3.org/2000/svg">
<path d="M33.9851 34.4028C21.0939 21.8601 29.9738 0 47.96 0C65.9462 0 74.826 21.8601 61.9348 34.4028L47.96 48L33.9851 34.4028Z" fill="url(#paint0_radial_709_388)"/>
<path d="M34.0652 61.5972C21.174 74.1399 30.0538 96 48.0401 96C66.0263 96 74.9061 74.1399 62.0149 61.5972L48.0401 48L34.0652 61.5972Z" fill="url(#paint1_radial_709_388)"/>
<path d="M34.4028 62.0149C21.8601 74.9061 0 66.0262 0 48.04C0 30.0538 21.8601 21.174 34.4028 34.0652L48 48.04L34.4028 62.0149Z" fill="url(#paint2_radial_709_388)"/>
<path d="M61.5972 61.9348C74.1399 74.826 96 65.9462 96 47.96C96 29.9737 74.1399 21.0939 61.5972 33.9851L48 47.96L61.5972 61.9348Z" fill="url(#paint3_radial_709_388)"/>
<defs>
<radialGradient id="paint0_radial_709_388" cx="0" cy="0" r="1" gradientUnits="userSpaceOnUse" gradientTransform="translate(48 47.9997) rotate(90) scale(39.0206 39.0206)">
<stop stop-color="#15040A"/>
<stop offset="1" stop-color="#FF7700" stop-opacity="0.25"/>
</radialGradient>
<radialGradient id="paint1_radial_709_388" cx="0" cy="0" r="1" gradientUnits="userSpaceOnUse" gradientTransform="translate(48 47.9997) rotate(90) scale(39.0206 39.0206)">
<stop stop-color="#15040A"/>
<stop offset="1" stop-color="#FF7700" stop-opacity="0.25"/>
</radialGradient>
<radialGradient id="paint2_radial_709_388" cx="0" cy="0" r="1" gradientUnits="userSpaceOnUse" gradientTransform="translate(48 47.9997) rotate(90) scale(39.0206 39.0206)">
<stop stop-color="#15040A"/>
<stop offset="1" stop-color="#FF7700" stop-opacity="0.25"/>
</radialGradient>
<radialGradient id="paint3_radial_709_388" cx="0" cy="0" r="1" gradientUnits="userSpaceOnUse" gradientTransform="translate(48 47.9997) rotate(90) scale(39.0206 39.0206)">
<stop stop-color="#15040A"/>
<stop offset="1" stop-color="#FF7700" stop-opacity="0.25"/>
</radialGradient>
</defs>
</svg>
