<svg width="48" height="48" viewBox="0 0 48 48" fill="none" xmlns="http://www.w3.org/2000/svg">
<path d="M16.9926 17.2014C10.547 10.93 14.9869 0 23.98 0C32.9731 0 37.413 10.93 30.9674 17.2014L23.98 24L16.9926 17.2014Z" fill="url(#paint0_radial_629_2305)"/>
<path d="M17.0326 30.7986C10.587 37.07 15.0269 48 24.02 48C33.0131 48 37.453 37.07 31.0075 30.7986L24.02 24L17.0326 30.7986Z" fill="url(#paint1_radial_629_2305)"/>
<path d="M17.2014 31.0074C10.93 37.453 0 33.0131 0 24.02C0 15.0269 10.93 10.587 17.2014 17.0326L24 24.02L17.2014 31.0074Z" fill="url(#paint2_radial_629_2305)"/>
<path d="M30.7986 30.9674C37.07 37.413 48 32.9731 48 23.98C48 14.9869 37.07 10.547 30.7986 16.9925L24 23.98L30.7986 30.9674Z" fill="url(#paint3_radial_629_2305)"/>
<defs>
<radialGradient id="paint0_radial_629_2305" cx="0" cy="0" r="1" gradientUnits="userSpaceOnUse" gradientTransform="translate(24 23.9998) rotate(90) scale(19.5103 19.5103)">
<stop stop-color="#15040A"/>
<stop offset="1" stop-color="#15040A" stop-opacity="0.25"/>
</radialGradient>
<radialGradient id="paint1_radial_629_2305" cx="0" cy="0" r="1" gradientUnits="userSpaceOnUse" gradientTransform="translate(24 23.9998) rotate(90) scale(19.5103 19.5103)">
<stop stop-color="#15040A"/>
<stop offset="1" stop-color="#15040A" stop-opacity="0.25"/>
</radialGradient>
<radialGradient id="paint2_radial_629_2305" cx="0" cy="0" r="1" gradientUnits="userSpaceOnUse" gradientTransform="translate(24 23.9998) rotate(90) scale(19.5103 19.5103)">
<stop stop-color="#15040A"/>
<stop offset="1" stop-color="#15040A" stop-opacity="0.25"/>
</radialGradient>
<radialGradient id="paint3_radial_629_2305" cx="0" cy="0" r="1" gradientUnits="userSpaceOnUse" gradientTransform="translate(24 23.9998) rotate(90) scale(19.5103 19.5103)">
<stop stop-color="#15040A"/>
<stop offset="1" stop-color="#15040A" stop-opacity="0.25"/>
</radialGradient>
</defs>
</svg>
