<svg width="48" height="48" viewBox="0 0 48 48" fill="none" xmlns="http://www.w3.org/2000/svg">
<path d="M24 0L29.1429 10.2857H18.8571L24 0Z" fill="url(#paint0_radial_629_2298)"/>
<path d="M24 20.5714L29.1429 10.2857H18.8571L24 20.5714Z" fill="url(#paint1_radial_629_2298)"/>
<path d="M24 27.4286L29.1429 37.7143H18.8571L24 27.4286Z" fill="url(#paint2_radial_629_2298)"/>
<path d="M24 48L29.1429 37.7143H18.8571L24 48Z" fill="url(#paint3_radial_629_2298)"/>
<path d="M0 24L10.2857 18.8571V29.1429L0 24Z" fill="url(#paint4_radial_629_2298)"/>
<path d="M20.5714 24L10.2857 18.8571V29.1429L20.5714 24Z" fill="url(#paint5_radial_629_2298)"/>
<path d="M27.4286 24L37.7143 18.8571V29.1429L27.4286 24Z" fill="url(#paint6_radial_629_2298)"/>
<path d="M48 24L37.7143 18.8571V29.1429L48 24Z" fill="url(#paint7_radial_629_2298)"/>
<path d="M7.02944 7.02947L17.9391 10.666L10.666 17.9391L7.02944 7.02947Z" fill="url(#paint8_radial_629_2298)"/>
<path d="M21.5756 21.5757L17.9391 10.666L10.666 17.9391L21.5756 21.5757Z" fill="url(#paint9_radial_629_2298)"/>
<path d="M26.4244 26.4244L37.334 30.0609L30.0609 37.334L26.4244 26.4244Z" fill="url(#paint10_radial_629_2298)"/>
<path d="M40.9706 40.9706L37.334 30.0609L30.0609 37.334L40.9706 40.9706Z" fill="url(#paint11_radial_629_2298)"/>
<path d="M40.9706 7.02947L30.0609 10.666L37.334 17.9391L40.9706 7.02947Z" fill="url(#paint12_radial_629_2298)"/>
<path d="M26.4244 21.5757L30.0609 10.666L37.334 17.9391L26.4244 21.5757Z" fill="url(#paint13_radial_629_2298)"/>
<path d="M21.5756 26.4244L10.666 30.0609L17.9391 37.334L21.5756 26.4244Z" fill="url(#paint14_radial_629_2298)"/>
<path d="M7.02943 40.9706L10.666 30.0609L17.9391 37.334L7.02943 40.9706Z" fill="url(#paint15_radial_629_2298)"/>
<defs>
<radialGradient id="paint0_radial_629_2298" cx="0" cy="0" r="1" gradientUnits="userSpaceOnUse" gradientTransform="translate(24 23.9998) rotate(90) scale(19.5103 19.5103)">
<stop stop-color="#15040A"/>
<stop offset="1" stop-color="#15040A" stop-opacity="0.25"/>
</radialGradient>
<radialGradient id="paint1_radial_629_2298" cx="0" cy="0" r="1" gradientUnits="userSpaceOnUse" gradientTransform="translate(24 23.9998) rotate(90) scale(19.5103 19.5103)">
<stop stop-color="#15040A"/>
<stop offset="1" stop-color="#15040A" stop-opacity="0.25"/>
</radialGradient>
<radialGradient id="paint2_radial_629_2298" cx="0" cy="0" r="1" gradientUnits="userSpaceOnUse" gradientTransform="translate(24 23.9998) rotate(90) scale(19.5103 19.5103)">
<stop stop-color="#15040A"/>
<stop offset="1" stop-color="#15040A" stop-opacity="0.25"/>
</radialGradient>
<radialGradient id="paint3_radial_629_2298" cx="0" cy="0" r="1" gradientUnits="userSpaceOnUse" gradientTransform="translate(24 23.9998) rotate(90) scale(19.5103 19.5103)">
<stop stop-color="#15040A"/>
<stop offset="1" stop-color="#15040A" stop-opacity="0.25"/>
</radialGradient>
<radialGradient id="paint4_radial_629_2298" cx="0" cy="0" r="1" gradientUnits="userSpaceOnUse" gradientTransform="translate(24 23.9998) rotate(90) scale(19.5103 19.5103)">
<stop stop-color="#15040A"/>
<stop offset="1" stop-color="#15040A" stop-opacity="0.25"/>
</radialGradient>
<radialGradient id="paint5_radial_629_2298" cx="0" cy="0" r="1" gradientUnits="userSpaceOnUse" gradientTransform="translate(24 23.9998) rotate(90) scale(19.5103 19.5103)">
<stop stop-color="#15040A"/>
<stop offset="1" stop-color="#15040A" stop-opacity="0.25"/>
</radialGradient>
<radialGradient id="paint6_radial_629_2298" cx="0" cy="0" r="1" gradientUnits="userSpaceOnUse" gradientTransform="translate(24 23.9998) rotate(90) scale(19.5103 19.5103)">
<stop stop-color="#15040A"/>
<stop offset="1" stop-color="#15040A" stop-opacity="0.25"/>
</radialGradient>
<radialGradient id="paint7_radial_629_2298" cx="0" cy="0" r="1" gradientUnits="userSpaceOnUse" gradientTransform="translate(24 23.9998) rotate(90) scale(19.5103 19.5103)">
<stop stop-color="#15040A"/>
<stop offset="1" stop-color="#15040A" stop-opacity="0.25"/>
</radialGradient>
<radialGradient id="paint8_radial_629_2298" cx="0" cy="0" r="1" gradientUnits="userSpaceOnUse" gradientTransform="translate(24 23.9998) rotate(90) scale(19.5103 19.5103)">
<stop stop-color="#15040A"/>
<stop offset="1" stop-color="#15040A" stop-opacity="0.25"/>
</radialGradient>
<radialGradient id="paint9_radial_629_2298" cx="0" cy="0" r="1" gradientUnits="userSpaceOnUse" gradientTransform="translate(24 23.9998) rotate(90) scale(19.5103 19.5103)">
<stop stop-color="#15040A"/>
<stop offset="1" stop-color="#15040A" stop-opacity="0.25"/>
</radialGradient>
<radialGradient id="paint10_radial_629_2298" cx="0" cy="0" r="1" gradientUnits="userSpaceOnUse" gradientTransform="translate(24 23.9998) rotate(90) scale(19.5103 19.5103)">
<stop stop-color="#15040A"/>
<stop offset="1" stop-color="#15040A" stop-opacity="0.25"/>
</radialGradient>
<radialGradient id="paint11_radial_629_2298" cx="0" cy="0" r="1" gradientUnits="userSpaceOnUse" gradientTransform="translate(24 23.9998) rotate(90) scale(19.5103 19.5103)">
<stop stop-color="#15040A"/>
<stop offset="1" stop-color="#15040A" stop-opacity="0.25"/>
</radialGradient>
<radialGradient id="paint12_radial_629_2298" cx="0" cy="0" r="1" gradientUnits="userSpaceOnUse" gradientTransform="translate(24 23.9998) rotate(90) scale(19.5103 19.5103)">
<stop stop-color="#15040A"/>
<stop offset="1" stop-color="#15040A" stop-opacity="0.25"/>
</radialGradient>
<radialGradient id="paint13_radial_629_2298" cx="0" cy="0" r="1" gradientUnits="userSpaceOnUse" gradientTransform="translate(24 23.9998) rotate(90) scale(19.5103 19.5103)">
<stop stop-color="#15040A"/>
<stop offset="1" stop-color="#15040A" stop-opacity="0.25"/>
</radialGradient>
<radialGradient id="paint14_radial_629_2298" cx="0" cy="0" r="1" gradientUnits="userSpaceOnUse" gradientTransform="translate(24 23.9998) rotate(90) scale(19.5103 19.5103)">
<stop stop-color="#15040A"/>
<stop offset="1" stop-color="#15040A" stop-opacity="0.25"/>
</radialGradient>
<radialGradient id="paint15_radial_629_2298" cx="0" cy="0" r="1" gradientUnits="userSpaceOnUse" gradientTransform="translate(24 23.9998) rotate(90) scale(19.5103 19.5103)">
<stop stop-color="#15040A"/>
<stop offset="1" stop-color="#15040A" stop-opacity="0.25"/>
</radialGradient>
</defs>
</svg>
