<svg width="241" height="241" viewBox="0 0 241 241" fill="none" xmlns="http://www.w3.org/2000/svg">
<path d="M118.031 240.5L97.7557 205.383C80.7521 175.932 90.8428 138.273 120.294 121.269L140.569 156.386C157.572 185.837 147.482 223.496 118.031 240.5Z" fill="url(#paint0_radial_709_139)"/>
<path d="M122.969 0.5L143.244 35.6171C160.248 65.0682 150.157 102.727 120.706 119.731L100.431 84.6136C83.4275 55.1626 93.5181 17.5036 122.969 0.5Z" fill="url(#paint1_radial_709_139)"/>
<path d="M0.5 118.031L35.6171 97.7563C65.0682 80.7527 102.727 90.8434 119.731 120.294L84.6136 140.569C55.1626 157.573 17.5036 147.482 0.5 118.031Z" fill="url(#paint2_radial_709_139)"/>
<path d="M240.5 122.97L205.383 143.245C175.932 160.248 138.273 150.158 121.269 120.706L156.386 100.432C185.837 83.428 223.496 93.5187 240.5 122.97Z" fill="url(#paint3_radial_709_139)"/>
<defs>
<radialGradient id="paint0_radial_709_139" cx="0" cy="0" r="1" gradientUnits="userSpaceOnUse" gradientTransform="translate(120.5 120.499) rotate(90) scale(97.5514 97.5514)">
<stop stop-color="#15040A"/>
<stop offset="1" stop-color="#15040A" stop-opacity="0.25"/>
</radialGradient>
<radialGradient id="paint1_radial_709_139" cx="0" cy="0" r="1" gradientUnits="userSpaceOnUse" gradientTransform="translate(120.5 120.499) rotate(90) scale(97.5514 97.5514)">
<stop stop-color="#15040A"/>
<stop offset="1" stop-color="#15040A" stop-opacity="0.25"/>
</radialGradient>
<radialGradient id="paint2_radial_709_139" cx="0" cy="0" r="1" gradientUnits="userSpaceOnUse" gradientTransform="translate(120.5 120.499) rotate(90) scale(97.5514 97.5514)">
<stop stop-color="#15040A"/>
<stop offset="1" stop-color="#15040A" stop-opacity="0.25"/>
</radialGradient>
<radialGradient id="paint3_radial_709_139" cx="0" cy="0" r="1" gradientUnits="userSpaceOnUse" gradientTransform="translate(120.5 120.499) rotate(90) scale(97.5514 97.5514)">
<stop stop-color="#15040A"/>
<stop offset="1" stop-color="#15040A" stop-opacity="0.25"/>
</radialGradient>
</defs>
</svg>
