<svg width="32" height="32" viewBox="0 0 32 32" fill="none" xmlns="http://www.w3.org/2000/svg">
<g clip-path="url(#clip0_709_1704)">
<path d="M15.9997 28.6667C22.9953 28.6667 28.6663 22.9956 28.6663 16C28.6663 9.00443 22.9953 3.33337 15.9997 3.33337C9.00407 3.33337 3.33301 9.00443 3.33301 16C3.33301 22.9956 9.00407 28.6667 15.9997 28.6667Z" stroke="url(#paint0_radial_709_1704)" stroke-dasharray="0.5 0.5"/>
<path d="M15.9997 31.6667C24.6521 31.6667 31.6663 24.6525 31.6663 16C31.6663 7.34758 24.6521 0.333374 15.9997 0.333374C7.34721 0.333374 0.333008 7.34758 0.333008 16C0.333008 24.6525 7.34721 31.6667 15.9997 31.6667Z" stroke="url(#paint1_radial_709_1704)" stroke-dasharray="0.5 0.5"/>
<path d="M15.9997 26.6667C21.8907 26.6667 26.6663 21.8911 26.6663 16C26.6663 10.109 21.8907 5.33337 15.9997 5.33337C10.1086 5.33337 5.33301 10.109 5.33301 16C5.33301 21.8911 10.1086 26.6667 15.9997 26.6667Z" fill="url(#paint2_radial_709_1704)"/>
<path d="M15.9997 24C20.418 24 23.9997 20.4183 23.9997 16C23.9997 11.5818 20.418 8.00004 15.9997 8.00004C11.5814 8.00004 7.99967 11.5818 7.99967 16C7.99967 20.4183 11.5814 24 15.9997 24Z" fill="url(#paint3_radial_709_1704)"/>
</g>
<defs>
<radialGradient id="paint0_radial_709_1704" cx="0" cy="0" r="1" gradientUnits="userSpaceOnUse" gradientTransform="translate(15.9997 15.9999) rotate(90) scale(12.7359 12.7359)">
<stop stop-color="#15040A" stop-opacity="0.5"/>
<stop offset="1" stop-color="#15040A" stop-opacity="0.15"/>
</radialGradient>
<radialGradient id="paint1_radial_709_1704" cx="0" cy="0" r="1" gradientUnits="userSpaceOnUse" gradientTransform="translate(15.9997 15.9999) rotate(90) scale(12.7359 12.7359)">
<stop stop-color="#15040A" stop-opacity="0.5"/>
<stop offset="1" stop-color="#15040A" stop-opacity="0.15"/>
</radialGradient>
<radialGradient id="paint2_radial_709_1704" cx="0" cy="0" r="1" gradientUnits="userSpaceOnUse" gradientTransform="translate(15.9997 16) rotate(90) scale(8.67124 8.67124)">
<stop stop-color="#15040A" stop-opacity="0.5"/>
<stop offset="1" stop-color="#15040A" stop-opacity="0.15"/>
</radialGradient>
<radialGradient id="paint3_radial_709_1704" cx="0" cy="0" r="1" gradientUnits="userSpaceOnUse" gradientTransform="translate(15.9997 16) rotate(90) scale(8.67124 8.67124)">
<stop stop-color="#15040A" stop-opacity="0.5"/>
<stop offset="1" stop-color="#15040A" stop-opacity="0.15"/>
</radialGradient>
<clipPath id="clip0_709_1704">
<rect width="32" height="32" fill="white"/>
</clipPath>
</defs>
</svg>
