<svg width="97" height="96" viewBox="0 0 97 96" fill="none" xmlns="http://www.w3.org/2000/svg">
<path d="M48.5 0L58.8929 20.5714H38.1071L48.5 0Z" fill="url(#paint0_radial_709_391)"/>
<path d="M48.5 41.1429L58.8929 20.5714H38.1071L48.5 41.1429Z" fill="url(#paint1_radial_709_391)"/>
<path d="M48.5 54.8571L58.8929 75.4286H38.1071L48.5 54.8571Z" fill="url(#paint2_radial_709_391)"/>
<path d="M48.5 96L58.8929 75.4286H38.1071L48.5 96Z" fill="url(#paint3_radial_709_391)"/>
<path d="M0 48L20.7857 37.7143V58.2857L0 48Z" fill="url(#paint4_radial_709_391)"/>
<path d="M41.5714 48L20.7857 37.7143V58.2857L41.5714 48Z" fill="url(#paint5_radial_709_391)"/>
<path d="M55.4286 48L76.2143 37.7143V58.2857L55.4286 48Z" fill="url(#paint6_radial_709_391)"/>
<path d="M97 48L76.2143 37.7143V58.2857L97 48Z" fill="url(#paint7_radial_709_391)"/>
<path d="M14.2053 14.0589L36.2519 21.332L21.5542 35.8782L14.2053 14.0589Z" fill="url(#paint8_radial_709_391)"/>
<path d="M43.6008 43.1513L36.2519 21.332L21.5542 35.8782L43.6008 43.1513Z" fill="url(#paint9_radial_709_391)"/>
<path d="M53.3992 52.8488L75.4458 60.1219L60.7481 74.6681L53.3992 52.8488Z" fill="url(#paint10_radial_709_391)"/>
<path d="M82.7947 81.9412L75.4458 60.1219L60.7481 74.6681L82.7947 81.9412Z" fill="url(#paint11_radial_709_391)"/>
<path d="M82.7947 14.0589L60.7481 21.332L75.4458 35.8782L82.7947 14.0589Z" fill="url(#paint12_radial_709_391)"/>
<path d="M53.3992 43.1513L60.7481 21.332L75.4458 35.8782L53.3992 43.1513Z" fill="url(#paint13_radial_709_391)"/>
<path d="M43.6008 52.8488L21.5542 60.1219L36.2519 74.6681L43.6008 52.8488Z" fill="url(#paint14_radial_709_391)"/>
<path d="M14.2053 81.9412L21.5542 60.1219L36.2519 74.6681L14.2053 81.9412Z" fill="url(#paint15_radial_709_391)"/>
<defs>
<radialGradient id="paint0_radial_709_391" cx="0" cy="0" r="1" gradientUnits="userSpaceOnUse" gradientTransform="translate(48.5 47.9997) rotate(90) scale(38.0003 38.3962)">
<stop stop-color="#15040A"/>
<stop offset="1" stop-color="#043DCC" stop-opacity="0.25"/>
</radialGradient>
<radialGradient id="paint1_radial_709_391" cx="0" cy="0" r="1" gradientUnits="userSpaceOnUse" gradientTransform="translate(48.5 47.9997) rotate(90) scale(38.0003 38.3962)">
<stop stop-color="#15040A"/>
<stop offset="1" stop-color="#043DCC" stop-opacity="0.25"/>
</radialGradient>
<radialGradient id="paint2_radial_709_391" cx="0" cy="0" r="1" gradientUnits="userSpaceOnUse" gradientTransform="translate(48.5 47.9997) rotate(90) scale(38.0003 38.3962)">
<stop stop-color="#15040A"/>
<stop offset="1" stop-color="#043DCC" stop-opacity="0.25"/>
</radialGradient>
<radialGradient id="paint3_radial_709_391" cx="0" cy="0" r="1" gradientUnits="userSpaceOnUse" gradientTransform="translate(48.5 47.9997) rotate(90) scale(38.0003 38.3962)">
<stop stop-color="#15040A"/>
<stop offset="1" stop-color="#043DCC" stop-opacity="0.25"/>
</radialGradient>
<radialGradient id="paint4_radial_709_391" cx="0" cy="0" r="1" gradientUnits="userSpaceOnUse" gradientTransform="translate(48.5 47.9997) rotate(90) scale(38.0003 38.3962)">
<stop stop-color="#15040A"/>
<stop offset="1" stop-color="#043DCC" stop-opacity="0.25"/>
</radialGradient>
<radialGradient id="paint5_radial_709_391" cx="0" cy="0" r="1" gradientUnits="userSpaceOnUse" gradientTransform="translate(48.5 47.9997) rotate(90) scale(38.0003 38.3962)">
<stop stop-color="#15040A"/>
<stop offset="1" stop-color="#043DCC" stop-opacity="0.25"/>
</radialGradient>
<radialGradient id="paint6_radial_709_391" cx="0" cy="0" r="1" gradientUnits="userSpaceOnUse" gradientTransform="translate(48.5 47.9997) rotate(90) scale(38.0003 38.3962)">
<stop stop-color="#15040A"/>
<stop offset="1" stop-color="#043DCC" stop-opacity="0.25"/>
</radialGradient>
<radialGradient id="paint7_radial_709_391" cx="0" cy="0" r="1" gradientUnits="userSpaceOnUse" gradientTransform="translate(48.5 47.9997) rotate(90) scale(38.0003 38.3962)">
<stop stop-color="#15040A"/>
<stop offset="1" stop-color="#043DCC" stop-opacity="0.25"/>
</radialGradient>
<radialGradient id="paint8_radial_709_391" cx="0" cy="0" r="1" gradientUnits="userSpaceOnUse" gradientTransform="translate(48.5 47.9997) rotate(90) scale(38.0003 38.3962)">
<stop stop-color="#15040A"/>
<stop offset="1" stop-color="#043DCC" stop-opacity="0.25"/>
</radialGradient>
<radialGradient id="paint9_radial_709_391" cx="0" cy="0" r="1" gradientUnits="userSpaceOnUse" gradientTransform="translate(48.5 47.9997) rotate(90) scale(38.0003 38.3962)">
<stop stop-color="#15040A"/>
<stop offset="1" stop-color="#043DCC" stop-opacity="0.25"/>
</radialGradient>
<radialGradient id="paint10_radial_709_391" cx="0" cy="0" r="1" gradientUnits="userSpaceOnUse" gradientTransform="translate(48.5 47.9997) rotate(90) scale(38.0003 38.3962)">
<stop stop-color="#15040A"/>
<stop offset="1" stop-color="#043DCC" stop-opacity="0.25"/>
</radialGradient>
<radialGradient id="paint11_radial_709_391" cx="0" cy="0" r="1" gradientUnits="userSpaceOnUse" gradientTransform="translate(48.5 47.9997) rotate(90) scale(38.0003 38.3962)">
<stop stop-color="#15040A"/>
<stop offset="1" stop-color="#043DCC" stop-opacity="0.25"/>
</radialGradient>
<radialGradient id="paint12_radial_709_391" cx="0" cy="0" r="1" gradientUnits="userSpaceOnUse" gradientTransform="translate(48.5 47.9997) rotate(90) scale(38.0003 38.3962)">
<stop stop-color="#15040A"/>
<stop offset="1" stop-color="#043DCC" stop-opacity="0.25"/>
</radialGradient>
<radialGradient id="paint13_radial_709_391" cx="0" cy="0" r="1" gradientUnits="userSpaceOnUse" gradientTransform="translate(48.5 47.9997) rotate(90) scale(38.0003 38.3962)">
<stop stop-color="#15040A"/>
<stop offset="1" stop-color="#043DCC" stop-opacity="0.25"/>
</radialGradient>
<radialGradient id="paint14_radial_709_391" cx="0" cy="0" r="1" gradientUnits="userSpaceOnUse" gradientTransform="translate(48.5 47.9997) rotate(90) scale(38.0003 38.3962)">
<stop stop-color="#15040A"/>
<stop offset="1" stop-color="#043DCC" stop-opacity="0.25"/>
</radialGradient>
<radialGradient id="paint15_radial_709_391" cx="0" cy="0" r="1" gradientUnits="userSpaceOnUse" gradientTransform="translate(48.5 47.9997) rotate(90) scale(38.0003 38.3962)">
<stop stop-color="#15040A"/>
<stop offset="1" stop-color="#043DCC" stop-opacity="0.25"/>
</radialGradient>
</defs>
</svg>
