<svg width="121" height="120" viewBox="0 0 121 120" fill="none" xmlns="http://www.w3.org/2000/svg">
<path d="M60.5 0L73.3571 25.7143H47.6429L60.5 0Z" fill="url(#paint0_radial_709_391)"/>
<path d="M60.5 51.4286L73.3571 25.7143H47.6429L60.5 51.4286Z" fill="url(#paint1_radial_709_391)"/>
<path d="M60.5 68.5714L73.3571 94.2857H47.6429L60.5 68.5714Z" fill="url(#paint2_radial_709_391)"/>
<path d="M60.5 120L73.3571 94.2857H47.6429L60.5 120Z" fill="url(#paint3_radial_709_391)"/>
<path d="M0.5 60L26.2143 47.1429V72.8571L0.5 60Z" fill="url(#paint4_radial_709_391)"/>
<path d="M51.9286 60L26.2143 47.1429V72.8571L51.9286 60Z" fill="url(#paint5_radial_709_391)"/>
<path d="M69.0714 60L94.7857 47.1429V72.8571L69.0714 60Z" fill="url(#paint6_radial_709_391)"/>
<path d="M120.5 60L94.7857 47.1429V72.8571L120.5 60Z" fill="url(#paint7_radial_709_391)"/>
<path d="M18.0736 17.5737L45.3477 26.665L27.165 44.8478L18.0736 17.5737Z" fill="url(#paint8_radial_709_391)"/>
<path d="M54.4391 53.9392L45.3477 26.665L27.165 44.8478L54.4391 53.9392Z" fill="url(#paint9_radial_709_391)"/>
<path d="M66.5609 66.061L93.835 75.1524L75.6523 93.3351L66.5609 66.061Z" fill="url(#paint10_radial_709_391)"/>
<path d="M102.926 102.426L93.835 75.1524L75.6523 93.3351L102.926 102.426Z" fill="url(#paint11_radial_709_391)"/>
<path d="M102.926 17.5737L75.6523 26.665L93.835 44.8478L102.926 17.5737Z" fill="url(#paint12_radial_709_391)"/>
<path d="M66.5609 53.9392L75.6523 26.665L93.835 44.8478L66.5609 53.9392Z" fill="url(#paint13_radial_709_391)"/>
<path d="M54.4391 66.061L27.165 75.1524L45.3477 93.3351L54.4391 66.061Z" fill="url(#paint14_radial_709_391)"/>
<path d="M18.0736 102.426L27.165 75.1524L45.3477 93.3351L18.0736 102.426Z" fill="url(#paint15_radial_709_391)"/>
<defs>
<radialGradient id="paint0_radial_709_391" cx="0" cy="0" r="1" gradientUnits="userSpaceOnUse" gradientTransform="translate(60.5001 59.9996) rotate(90) scale(47.5004 47.5004)">
<stop stop-color="#4A4DE8" stop-opacity="0.65"/>
<stop offset="1" stop-color="#043DCC" stop-opacity="0.25"/>
</radialGradient>
<radialGradient id="paint1_radial_709_391" cx="0" cy="0" r="1" gradientUnits="userSpaceOnUse" gradientTransform="translate(60.5001 59.9996) rotate(90) scale(47.5004 47.5004)">
<stop stop-color="#4A4DE8" stop-opacity="0.65"/>
<stop offset="1" stop-color="#043DCC" stop-opacity="0.25"/>
</radialGradient>
<radialGradient id="paint2_radial_709_391" cx="0" cy="0" r="1" gradientUnits="userSpaceOnUse" gradientTransform="translate(60.5001 59.9996) rotate(90) scale(47.5004 47.5004)">
<stop stop-color="#4A4DE8" stop-opacity="0.65"/>
<stop offset="1" stop-color="#043DCC" stop-opacity="0.25"/>
</radialGradient>
<radialGradient id="paint3_radial_709_391" cx="0" cy="0" r="1" gradientUnits="userSpaceOnUse" gradientTransform="translate(60.5001 59.9996) rotate(90) scale(47.5004 47.5004)">
<stop stop-color="#4A4DE8" stop-opacity="0.65"/>
<stop offset="1" stop-color="#043DCC" stop-opacity="0.25"/>
</radialGradient>
<radialGradient id="paint4_radial_709_391" cx="0" cy="0" r="1" gradientUnits="userSpaceOnUse" gradientTransform="translate(60.5001 59.9996) rotate(90) scale(47.5004 47.5004)">
<stop stop-color="#4A4DE8" stop-opacity="0.65"/>
<stop offset="1" stop-color="#043DCC" stop-opacity="0.25"/>
</radialGradient>
<radialGradient id="paint5_radial_709_391" cx="0" cy="0" r="1" gradientUnits="userSpaceOnUse" gradientTransform="translate(60.5001 59.9996) rotate(90) scale(47.5004 47.5004)">
<stop stop-color="#4A4DE8" stop-opacity="0.65"/>
<stop offset="1" stop-color="#043DCC" stop-opacity="0.25"/>
</radialGradient>
<radialGradient id="paint6_radial_709_391" cx="0" cy="0" r="1" gradientUnits="userSpaceOnUse" gradientTransform="translate(60.5001 59.9996) rotate(90) scale(47.5004 47.5004)">
<stop stop-color="#4A4DE8" stop-opacity="0.65"/>
<stop offset="1" stop-color="#043DCC" stop-opacity="0.25"/>
</radialGradient>
<radialGradient id="paint7_radial_709_391" cx="0" cy="0" r="1" gradientUnits="userSpaceOnUse" gradientTransform="translate(60.5001 59.9996) rotate(90) scale(47.5004 47.5004)">
<stop stop-color="#4A4DE8" stop-opacity="0.65"/>
<stop offset="1" stop-color="#043DCC" stop-opacity="0.25"/>
</radialGradient>
<radialGradient id="paint8_radial_709_391" cx="0" cy="0" r="1" gradientUnits="userSpaceOnUse" gradientTransform="translate(60.5001 59.9996) rotate(90) scale(47.5004 47.5004)">
<stop stop-color="#4A4DE8" stop-opacity="0.65"/>
<stop offset="1" stop-color="#043DCC" stop-opacity="0.25"/>
</radialGradient>
<radialGradient id="paint9_radial_709_391" cx="0" cy="0" r="1" gradientUnits="userSpaceOnUse" gradientTransform="translate(60.5001 59.9996) rotate(90) scale(47.5004 47.5004)">
<stop stop-color="#4A4DE8" stop-opacity="0.65"/>
<stop offset="1" stop-color="#043DCC" stop-opacity="0.25"/>
</radialGradient>
<radialGradient id="paint10_radial_709_391" cx="0" cy="0" r="1" gradientUnits="userSpaceOnUse" gradientTransform="translate(60.5001 59.9996) rotate(90) scale(47.5004 47.5004)">
<stop stop-color="#4A4DE8" stop-opacity="0.65"/>
<stop offset="1" stop-color="#043DCC" stop-opacity="0.25"/>
</radialGradient>
<radialGradient id="paint11_radial_709_391" cx="0" cy="0" r="1" gradientUnits="userSpaceOnUse" gradientTransform="translate(60.5001 59.9996) rotate(90) scale(47.5004 47.5004)">
<stop stop-color="#4A4DE8" stop-opacity="0.65"/>
<stop offset="1" stop-color="#043DCC" stop-opacity="0.25"/>
</radialGradient>
<radialGradient id="paint12_radial_709_391" cx="0" cy="0" r="1" gradientUnits="userSpaceOnUse" gradientTransform="translate(60.5001 59.9996) rotate(90) scale(47.5004 47.5004)">
<stop stop-color="#4A4DE8" stop-opacity="0.65"/>
<stop offset="1" stop-color="#043DCC" stop-opacity="0.25"/>
</radialGradient>
<radialGradient id="paint13_radial_709_391" cx="0" cy="0" r="1" gradientUnits="userSpaceOnUse" gradientTransform="translate(60.5001 59.9996) rotate(90) scale(47.5004 47.5004)">
<stop stop-color="#4A4DE8" stop-opacity="0.65"/>
<stop offset="1" stop-color="#043DCC" stop-opacity="0.25"/>
</radialGradient>
<radialGradient id="paint14_radial_709_391" cx="0" cy="0" r="1" gradientUnits="userSpaceOnUse" gradientTransform="translate(60.5001 59.9996) rotate(90) scale(47.5004 47.5004)">
<stop stop-color="#4A4DE8" stop-opacity="0.65"/>
<stop offset="1" stop-color="#043DCC" stop-opacity="0.25"/>
</radialGradient>
<radialGradient id="paint15_radial_709_391" cx="0" cy="0" r="1" gradientUnits="userSpaceOnUse" gradientTransform="translate(60.5001 59.9996) rotate(90) scale(47.5004 47.5004)">
<stop stop-color="#4A4DE8" stop-opacity="0.65"/>
<stop offset="1" stop-color="#043DCC" stop-opacity="0.25"/>
</radialGradient>
</defs>
</svg>
