<svg width="48" height="48" viewBox="0 0 48 48" fill="none" xmlns="http://www.w3.org/2000/svg">
<path d="M23.5061 48L19.4511 40.9766C16.0504 35.0864 18.0686 27.5546 23.9588 24.1539L28.0138 31.1773C31.4145 37.0675 29.3963 44.5993 23.5061 48Z" fill="url(#paint0_radial_709_487)"/>
<path d="M24.4938 0L28.5488 7.02341C31.9495 12.9136 29.9314 20.4454 24.0412 23.8461L19.9862 16.8227C16.5855 10.9325 18.6036 3.40072 24.4938 0Z" fill="url(#paint1_radial_709_487)"/>
<path d="M0 23.5062L7.02341 19.4513C12.9136 16.0505 20.4454 18.0687 23.8461 23.9589L16.8227 28.0139C10.9325 31.4146 3.40072 29.3964 0 23.5062Z" fill="url(#paint2_radial_709_487)"/>
<path d="M48 24.494L40.9766 28.5489C35.0864 31.9497 27.5546 29.9315 24.1539 24.0413L31.1773 19.9863C37.0675 16.5856 44.5993 18.6037 48 24.494Z" fill="url(#paint3_radial_709_487)"/>
<defs>
<radialGradient id="paint0_radial_709_487" cx="0" cy="0" r="1" gradientUnits="userSpaceOnUse" gradientTransform="translate(24 23.9998) rotate(90) scale(19.5103 19.5103)">
<stop stop-color="#15040A" stop-opacity="0.5"/>
<stop offset="1" stop-color="#15040A" stop-opacity="0.15"/>
</radialGradient>
<radialGradient id="paint1_radial_709_487" cx="0" cy="0" r="1" gradientUnits="userSpaceOnUse" gradientTransform="translate(24 23.9998) rotate(90) scale(19.5103 19.5103)">
<stop stop-color="#15040A" stop-opacity="0.5"/>
<stop offset="1" stop-color="#15040A" stop-opacity="0.15"/>
</radialGradient>
<radialGradient id="paint2_radial_709_487" cx="0" cy="0" r="1" gradientUnits="userSpaceOnUse" gradientTransform="translate(24 23.9998) rotate(90) scale(19.5103 19.5103)">
<stop stop-color="#15040A" stop-opacity="0.5"/>
<stop offset="1" stop-color="#15040A" stop-opacity="0.15"/>
</radialGradient>
<radialGradient id="paint3_radial_709_487" cx="0" cy="0" r="1" gradientUnits="userSpaceOnUse" gradientTransform="translate(24 23.9998) rotate(90) scale(19.5103 19.5103)">
<stop stop-color="#15040A" stop-opacity="0.5"/>
<stop offset="1" stop-color="#15040A" stop-opacity="0.15"/>
</radialGradient>
</defs>
</svg>
