<svg width="48" height="48" viewBox="0 0 48 48" fill="none" xmlns="http://www.w3.org/2000/svg">
<path d="M24 0L24.5494 15.618L27.1326 0.205323L25.6388 15.7614L30.2117 0.817781L26.7001 16.0458L33.1844 1.82689L27.7152 16.4663L36 3.21539L28.6668 17.0157L38.6103 4.95952L29.5385 17.6845L40.9706 7.02944L30.3155 18.4615L43.0405 9.38973L30.9843 19.3332L44.7846 12L31.5337 20.2848L46.1731 14.8156L31.9542 21.2999L47.1822 17.7883L32.2386 22.3612L47.7947 20.8674L32.382 23.4506L48 24L32.382 24.5494L47.7947 27.1326L32.2386 25.6388L47.1822 30.2117L31.9542 26.7001L46.1731 33.1844L31.5337 27.7152L44.7846 36L30.9843 28.6668L43.0405 38.6103L30.3155 29.5385L40.9706 40.9706L29.5385 30.3155L38.6103 43.0405L28.6668 30.9843L36 44.7846L27.7152 31.5337L33.1844 46.1731L26.7001 31.9542L30.2117 47.1822L25.6388 32.2386L27.1326 47.7947L24.5494 32.382L24 48L23.4506 32.382L20.8674 47.7947L22.3612 32.2386L17.7883 47.1822L21.2999 31.9542L14.8156 46.1731L20.2848 31.5337L12 44.7846L19.3332 30.9843L9.38973 43.0405L18.4615 30.3155L7.02944 40.9706L17.6845 29.5385L4.95952 38.6103L17.0157 28.6668L3.21539 36L16.4663 27.7152L1.82689 33.1844L16.0458 26.7001L0.817781 30.2117L15.7614 25.6388L0.205323 27.1326L15.618 24.5494L0 24L15.618 23.4506L0.205323 20.8674L15.7614 22.3612L0.817781 17.7883L16.0458 21.2999L1.82689 14.8156L16.4663 20.2848L3.21539 12L17.0157 19.3332L4.95952 9.38973L17.6845 18.4615L7.02944 7.02944L18.4615 17.6845L9.38973 4.95952L19.3332 17.0157L12 3.21539L20.2848 16.4663L14.8156 1.82689L21.2999 16.0458L17.7883 0.817781L22.3612 15.7614L20.8674 0.205323L23.4506 15.618L24 0Z" fill="url(#paint0_radial_709_1722)"/>
<defs>
<radialGradient id="paint0_radial_709_1722" cx="0" cy="0" r="1" gradientUnits="userSpaceOnUse" gradientTransform="translate(24 23.9998) rotate(90) scale(19.5103 19.5103)">
<stop stop-color="#15040A"/>
<stop offset="1" stop-color="#15040A" stop-opacity="0.25"/>
</radialGradient>
</defs>
</svg>
