<svg width="32" height="32" viewBox="0 0 32 32" fill="none" xmlns="http://www.w3.org/2000/svg">
<path d="M16.2529 24.6436C16.2012 25.5527 16.1496 26.4266 16.0967 27.2344C16.0665 27.696 16.0345 28.1361 16.0059 28.5488C16.0039 28.5488 16.002 28.5498 16 28.5498C15.9977 28.5498 15.9954 28.5488 15.9932 28.5488C15.9647 28.1382 15.9344 27.7003 15.9043 27.2412C15.8513 26.4315 15.798 25.5553 15.7461 24.6436C15.8305 24.646 15.915 24.6504 16 24.6504C16.0846 24.6504 16.1689 24.6459 16.2529 24.6436ZM10.3105 22.5449C11.6584 23.7019 13.3654 24.4547 15.2441 24.6152C15.2971 25.5494 15.3511 26.447 15.4053 27.2744C15.4343 27.7172 15.4636 28.1401 15.4912 28.5381C12.3061 28.4129 9.42704 27.1166 7.27246 25.0723C7.40909 24.961 7.60832 24.7994 7.85742 24.5947C8.35768 24.1836 9.06179 23.6006 9.87793 22.9131C10.0194 22.7939 10.1628 22.67 10.3105 22.5449ZM22.1309 22.9062C22.949 23.5955 23.6556 24.1805 24.1572 24.5928C24.4019 24.7938 24.5986 24.9531 24.7354 25.0645C22.5797 27.1134 19.6973 28.4129 16.5078 28.5381C16.5355 28.138 16.5666 27.7129 16.5957 27.2676C16.6497 26.442 16.703 25.5468 16.7559 24.6152C18.6383 24.4544 20.3482 23.6989 21.6973 22.5381C21.8452 22.6634 21.9892 22.7869 22.1309 22.9062ZM3.36816 16.4072C4.02522 16.4601 4.82276 16.523 5.71094 16.5869C6.22104 16.6236 6.76169 16.6604 7.32227 16.6973C7.4745 18.5928 8.24099 20.3143 9.4248 21.668C9.30282 21.81 9.18276 21.9488 9.06641 22.085C8.37188 22.898 7.7826 23.6001 7.36719 24.0986C7.15959 24.3478 6.99522 24.5464 6.88281 24.6826L6.88086 24.6846C4.79033 22.5207 3.47123 19.617 3.36816 16.4072ZM28.6309 16.4072C28.5279 19.6123 27.2132 22.5119 25.1279 24.6748C25.0157 24.5388 24.8534 24.3425 24.6494 24.0977C24.234 23.5991 23.6446 22.8978 22.9502 22.085C22.8311 21.9456 22.708 21.8037 22.583 21.6582C23.7621 20.3059 24.5249 18.5884 24.6768 16.6973C25.2403 16.6602 25.7834 16.6238 26.2959 16.5869C27.1809 16.5232 27.9757 16.46 28.6309 16.4072ZM7.2959 16.1943C6.75776 16.1588 6.23843 16.1242 5.74707 16.0889C5.33193 16.059 4.93678 16.0273 4.56641 15.999C4.93465 15.9709 5.32772 15.9418 5.74023 15.9121C6.23369 15.8766 6.75516 15.8414 7.2959 15.8057C7.29446 15.8703 7.29199 15.935 7.29199 16C7.29199 16.065 7.29446 16.1297 7.2959 16.1943ZM14.9785 18.4414C15.0245 20.2865 15.1151 22.2585 15.2168 24.1113C13.5007 23.95 11.9399 23.2647 10.6963 22.2178C12.0401 21.0739 13.5771 19.7348 14.9785 18.4414ZM17.0205 18.4268C18.4233 19.7221 19.9645 21.0632 21.3115 22.21C20.0663 23.2611 18.5026 23.9498 16.7822 24.1113C16.8842 22.2536 16.9747 20.2761 17.0205 18.4268ZM9.76562 22.0371C9.82175 22.0943 9.87884 22.1504 9.93652 22.2061C9.80675 22.3159 9.68054 22.4251 9.55566 22.5303C9.29991 22.7457 9.05411 22.9498 8.82324 23.1426C9.01903 22.9113 9.22732 22.6655 9.44629 22.4092C9.55031 22.2874 9.65711 22.1635 9.76562 22.0371ZM22.5703 22.4092C22.789 22.6651 22.9968 22.9106 23.1924 23.1416C22.9596 22.9472 22.7112 22.7418 22.4531 22.5244C22.3277 22.4188 22.2006 22.3095 22.0703 22.1992C22.1283 22.1432 22.1848 22.0859 22.2412 22.0283C22.3527 22.1582 22.4636 22.2842 22.5703 22.4092ZM7.82617 16.7305C9.66542 16.8477 11.6874 16.9545 13.5762 17.0098C12.2673 18.4077 10.9114 19.944 9.75391 21.2852C8.6804 20.0356 7.98107 18.4611 7.82617 16.7305ZM24.1729 16.7295C24.0185 18.4561 23.323 20.0271 22.2539 21.2754C21.098 19.9362 19.7454 18.4036 18.4395 17.0088C20.3234 16.9534 22.3389 16.8464 24.1729 16.7295ZM7.35059 7.90234C7.766 8.40089 8.35538 9.10216 9.0498 9.91504C9.16859 10.0541 9.29137 10.1957 9.41602 10.3408C8.23703 11.6929 7.47433 13.411 7.32227 15.3018C6.759 15.3388 6.21637 15.3762 5.7041 15.4131C4.81869 15.4769 4.02353 15.5391 3.36816 15.5918C3.47132 12.387 4.78606 9.48689 6.87109 7.32422C6.98339 7.46025 7.14603 7.65685 7.35059 7.90234ZM25.1367 7.33398C27.2167 9.4957 28.5278 12.3915 28.6309 15.5918C27.9775 15.5392 27.1848 15.4776 26.3027 15.4141C25.7882 15.377 25.2429 15.34 24.6768 15.3027C24.5252 13.4158 23.7656 11.7015 22.5908 10.3506C22.7186 10.2019 22.8452 10.0574 22.9668 9.91504C23.6612 9.10217 24.2506 8.4009 24.666 7.90234C24.8655 7.66289 25.0248 7.46956 25.1367 7.33398ZM9.74512 10.7236C10.9009 12.0627 12.2536 13.5953 13.5596 14.9902C11.6756 15.0456 9.66004 15.1526 7.82617 15.2695C7.98068 13.5432 8.67618 11.9717 9.74512 10.7236ZM22.2617 10.7324C23.3266 11.9791 24.0187 13.5471 24.1729 15.2695C22.344 15.153 20.3345 15.0457 18.4551 14.9902C19.7582 13.5985 21.1075 12.0695 22.2617 10.7324ZM16.7832 7.8877C18.5067 8.04966 20.0731 8.74144 21.3193 9.7959C19.969 10.9456 18.4249 12.2905 17.0205 13.5879C16.9748 11.734 16.8855 9.75062 16.7832 7.8877ZM15.2168 7.8877C15.1148 9.74541 15.0244 11.7229 14.9785 13.5723C13.5756 12.2769 12.0344 10.9357 10.6875 9.78906C11.9325 8.7381 13.4967 8.04934 15.2168 7.8877ZM22.5869 9.59082C22.4779 9.71846 22.3649 9.84772 22.251 9.98047C22.1942 9.92232 22.1365 9.86515 22.0781 9.80859C22.209 9.6978 22.337 9.58853 22.4629 9.48242C22.7234 9.2629 22.9731 9.05451 23.208 8.8584C23.0125 9.08926 22.8055 9.33499 22.5869 9.59082ZM9.54688 9.47559C9.67194 9.58096 9.79876 9.68979 9.92871 9.7998C9.87076 9.8558 9.81418 9.91314 9.75781 9.9707C9.64667 9.84123 9.53613 9.71542 9.42969 9.59082C9.21069 9.33446 9.00246 9.0887 8.80664 8.85742C9.03975 9.05207 9.28843 9.25784 9.54688 9.47559ZM16.5078 3.46094C19.7005 3.5862 22.5858 4.8889 24.7422 6.94141C24.6055 7.05273 24.4124 7.21155 24.1719 7.40918C23.6688 7.82259 22.9607 8.40863 22.1406 9.09961C21.9985 9.21935 21.8535 9.34303 21.7051 9.46875C20.3548 8.30411 18.642 7.54493 16.7559 7.38379C16.7032 6.45517 16.6496 5.5626 16.5957 4.73926C16.5664 4.29109 16.5357 3.86333 16.5078 3.46094ZM15.4043 4.73242C15.3503 5.5577 15.296 6.45256 15.2432 7.38379C13.361 7.5448 11.6506 8.30029 10.3018 9.46094C10.1542 9.33597 10.0104 9.21279 9.86914 9.09375C9.05098 8.40444 8.34444 7.81949 7.84277 7.40723C7.59748 7.20565 7.40043 7.04592 7.26367 6.93457C9.41913 4.88583 12.3021 3.5863 15.4912 3.46094C15.4635 3.86127 15.4335 4.28675 15.4043 4.73242ZM16.0059 3.4502C16.0347 3.86524 16.0663 4.30796 16.0967 4.77246C16.1494 5.57806 16.2013 6.4492 16.2529 7.35547C16.1689 7.35309 16.0846 7.34961 16 7.34961C15.9151 7.34961 15.8305 7.35307 15.7461 7.35547C15.7979 6.44663 15.8505 5.57314 15.9033 4.76562C15.9336 4.30366 15.9645 3.86317 15.9932 3.4502H16.0059ZM7.79688 15.7715C9.82455 15.6417 12.0778 15.524 14.1289 15.4746L14.6914 15.4609L14.3047 15.0527C12.8761 13.5465 11.3593 11.8288 10.085 10.3516C10.1593 10.2748 10.2352 10.1998 10.3125 10.126C11.7992 11.3907 13.5275 12.8961 15.0439 14.3145L15.4531 14.6973L15.4648 14.1367C15.5056 12.1203 15.6053 9.91383 15.7188 7.85645C15.8121 7.85332 15.9059 7.84961 16 7.84961C16.0935 7.84961 16.1866 7.85337 16.2793 7.85645C16.393 9.91917 16.4946 12.1317 16.5352 14.1523L16.5469 14.7129L16.9561 14.3301C18.4734 12.9102 20.2053 11.4015 21.6953 10.1338C21.7727 10.2078 21.8485 10.2834 21.9229 10.3604C20.6501 11.8356 19.1375 13.5496 17.7119 15.0527L17.3252 15.4609L17.8877 15.4746C19.9341 15.5242 22.1802 15.6431 24.2021 15.7725C24.2042 15.8481 24.208 15.9239 24.208 16C24.208 16.0761 24.2042 16.1519 24.2021 16.2275C22.1747 16.3573 19.9219 16.476 17.8711 16.5254L17.3086 16.5391L17.6953 16.9473C19.1235 18.4531 20.6399 20.1704 21.9141 21.6475C21.8397 21.7242 21.7638 21.7992 21.6865 21.873C20.2001 20.6085 18.4722 19.1035 16.9561 17.6855L16.5469 17.3027L16.5352 17.8633C16.4944 19.8794 16.3937 22.0855 16.2803 24.1426C16.1872 24.1457 16.0938 24.1504 16 24.1504C15.9058 24.1504 15.8121 24.1457 15.7188 24.1426C15.6057 22.0906 15.5058 19.8899 15.4648 17.8779L15.4531 17.3184L15.0439 17.7012C13.5286 19.1176 11.8034 20.6193 10.3203 21.8809C10.2434 21.8076 10.1677 21.7333 10.0938 21.6572C11.3696 20.1781 12.8899 18.4574 14.3213 16.9482L14.708 16.5391L14.1455 16.5264C12.0899 16.4772 9.83003 16.3576 7.79688 16.2275C7.79479 16.1519 7.79199 16.0761 7.79199 16C7.79199 15.9236 7.79477 15.8474 7.79688 15.7715ZM24.7031 15.8057C25.2469 15.8416 25.7716 15.8764 26.2676 15.9121C26.6784 15.9417 27.0697 15.971 27.4365 15.999C27.0674 16.0272 26.6734 16.0581 26.2598 16.0879C25.766 16.1235 25.2442 16.1576 24.7031 16.1934C24.7045 16.1291 24.708 16.0646 24.708 16C24.708 15.935 24.7046 15.8703 24.7031 15.8057Z" fill="url(#paint0_radial_709_1709)" stroke="url(#paint1_radial_709_1709)" stroke-width="0.5"/>
<defs>
<radialGradient id="paint0_radial_709_1709" cx="0" cy="0" r="1" gradientUnits="userSpaceOnUse" gradientTransform="translate(16 15.9999) rotate(90) scale(13.0069 11.7875)">
<stop stop-color="#15040A"/>
<stop offset="1" stop-color="white" stop-opacity="0.25"/>
</radialGradient>
<radialGradient id="paint1_radial_709_1709" cx="0" cy="0" r="1" gradientUnits="userSpaceOnUse" gradientTransform="translate(16 15.9999) rotate(90) scale(13.0069 11.7875)">
<stop stop-color="#15040A" stop-opacity="0.5"/>
<stop offset="1" stop-color="#15040A" stop-opacity="0.15"/>
</radialGradient>
</defs>
</svg>
