<svg width="25" height="24" viewBox="0 0 25 24" fill="none" xmlns="http://www.w3.org/2000/svg">
<path fill-rule="evenodd" clip-rule="evenodd" d="M2.51462 7.70421C2.5 7.85174 2.5 8.0269 2.5 8.37722V16.2C2.5 17.8802 2.5 18.7202 2.82698 19.362C3.1146 19.9265 3.57354 20.3854 4.13803 20.673C4.77976 21 5.61984 21 7.3 21H17.7C19.3802 21 20.2202 21 20.862 20.673C21.4265 20.3854 21.8854 19.9265 22.173 19.362C22.5 18.7202 22.5 17.8802 22.5 16.2V8.37722C22.5 8.0269 22.5 7.85174 22.4854 7.70421C22.3444 6.28127 21.2187 5.1556 19.7958 5.01462C19.6483 5 19.4636 5 19.0944 5C18.9521 5 18.881 5 18.8206 4.99634C18.0494 4.94963 17.374 4.46288 17.0859 3.746C17.0633 3.68986 17.0422 3.62657 17 3.5C16.9578 3.37343 16.9367 3.31014 16.9141 3.254C16.626 2.53712 15.9506 2.05037 15.1794 2.00366C15.119 2 15.0523 2 14.9189 2H10.0811C9.94772 2 9.88101 2 9.82061 2.00366C9.04939 2.05037 8.37405 2.53712 8.08586 3.254C8.06329 3.31014 8.04219 3.37343 8 3.5C7.95781 3.62657 7.93671 3.68986 7.91414 3.746C7.62595 4.46288 6.95061 4.94963 6.17939 4.99634C6.11899 5 6.04785 5 5.90558 5C5.53636 5 5.35174 5 5.20421 5.01462C3.78127 5.1556 2.6556 6.28127 2.51462 7.70421ZM12.5 16.5C14.7091 16.5 16.5 14.7091 16.5 12.5C16.5 10.2909 14.7091 8.5 12.5 8.5C10.2909 8.5 8.5 10.2909 8.5 12.5C8.5 14.7091 10.2909 16.5 12.5 16.5Z" fill="white"/>
</svg>
