<svg width="27" height="29" viewBox="0 0 27 29" fill="none" xmlns="http://www.w3.org/2000/svg">
<g filter="url(#filter0_d_890_143)">
<path fill-rule="evenodd" clip-rule="evenodd" d="M4.57403 11.4391C4.5 11.7035 4.5 11.9907 4.5 12.5651V19.8C4.5 20.9201 4.5 21.4801 4.71799 21.908C4.90973 22.2843 5.21569 22.5903 5.59202 22.782C6.01984 23 6.5799 23 7.7 23H10.5V15.6C10.5 15.0399 10.5 14.7599 10.609 14.546C10.7049 14.3578 10.8578 14.2049 11.046 14.109C11.2599 14 11.5399 14 12.1 14H14.9C15.4601 14 15.7401 14 15.954 14.109C16.1422 14.2049 16.2951 14.3578 16.391 14.546C16.5 14.7599 16.5 15.0399 16.5 15.6V23H19.3C20.4201 23 20.9802 23 21.408 22.782C21.7843 22.5903 22.0903 22.2843 22.282 21.908C22.5 21.4801 22.5 20.9201 22.5 19.8V12.5651C22.5 11.9907 22.5 11.7035 22.426 11.4391C22.3604 11.2048 22.2526 10.9844 22.108 10.7889C21.9447 10.5681 21.718 10.3917 21.2646 10.0391L14.4823 4.764C14.131 4.49075 13.9553 4.35412 13.7613 4.3016C13.5902 4.25526 13.4098 4.25526 13.2387 4.3016C13.0447 4.35412 12.869 4.49075 12.5177 4.764L5.73539 10.0391C5.28202 10.3917 5.05534 10.5681 4.89203 10.7889C4.74737 10.9844 4.6396 11.2048 4.57403 11.4391Z" fill="#180614"/>
<path d="M7.7 23H19.3M7.7 23C6.57989 23 6.01984 23 5.59202 22.782C5.21569 22.5903 4.90973 22.2843 4.71799 21.908C4.5 21.4801 4.5 20.9201 4.5 19.8V12.5651C4.5 11.9907 4.5 11.7035 4.57403 11.4391C4.6396 11.2048 4.74737 10.9844 4.89203 10.7889C5.05534 10.5681 5.28202 10.3917 5.73539 10.0391L12.5177 4.764C12.869 4.49075 13.0447 4.35412 13.2387 4.3016C13.4098 4.25526 13.5902 4.25526 13.7613 4.3016C13.9553 4.35412 14.131 4.49075 14.4823 4.764L21.2646 10.0391C21.718 10.3917 21.9447 10.5681 22.108 10.7889C22.2526 10.9844 22.3604 11.2048 22.426 11.4391C22.5 11.7035 22.5 11.9907 22.5 12.5651V19.8C22.5 20.9201 22.5 21.4801 22.282 21.908C22.0903 22.2843 21.7843 22.5903 21.408 22.782C20.9802 23 20.4201 23 19.3 23M7.7 23H10.5V15.6C10.5 15.0399 10.5 14.7599 10.609 14.546C10.7049 14.3578 10.8578 14.2049 11.046 14.109C11.2599 14 11.5399 14 12.1 14H14.9C15.4601 14 15.7401 14 15.954 14.109C16.1422 14.2049 16.2951 14.3578 16.391 14.546C16.5 14.7599 16.5 15.0399 16.5 15.6V23H19.3" stroke="#180614" stroke-linecap="round" stroke-linejoin="round"/>
</g>
<defs>
<filter id="filter0_d_890_143" x="0" y="0.766846" width="27" height="27.7332" filterUnits="userSpaceOnUse" color-interpolation-filters="sRGB">
<feFlood flood-opacity="0" result="BackgroundImageFix"/>
<feColorMatrix in="SourceAlpha" type="matrix" values="0 0 0 0 0 0 0 0 0 0 0 0 0 0 0 0 0 0 127 0" result="hardAlpha"/>
<feOffset dy="1"/>
<feGaussianBlur stdDeviation="2"/>
<feComposite in2="hardAlpha" operator="out"/>
<feColorMatrix type="matrix" values="0 0 0 0 1 0 0 0 0 1 0 0 0 0 1 0 0 0 0.25 0"/>
<feBlend mode="normal" in2="BackgroundImageFix" result="effect1_dropShadow_890_143"/>
<feBlend mode="normal" in="SourceGraphic" in2="effect1_dropShadow_890_143" result="shape"/>
</filter>
</defs>
</svg>
