<svg width="241" height="241" viewBox="0 0 241 241" fill="none" xmlns="http://www.w3.org/2000/svg">
<path d="M120.5 0.5L123.247 78.5899L136.163 1.52662L128.694 79.307L151.558 4.58891L134 80.7289L166.422 9.63446L139.076 82.8313L180.5 16.5769L143.834 85.5783L193.551 25.2976L148.193 88.9227L205.353 35.6472L152.077 92.8075L215.702 47.4486L155.422 97.166L224.423 60.5L158.169 101.924L231.366 74.578L160.271 107L236.411 89.4417L161.693 112.306L239.473 104.837L162.41 117.753L240.5 120.5L162.41 123.247L239.473 136.163L161.693 128.694L236.411 151.558L160.271 134L231.366 166.422L158.169 139.076L224.423 180.5L155.422 143.834L215.702 193.551L152.077 148.193L205.353 205.353L148.193 152.077L193.551 215.702L143.834 155.422L180.5 224.423L139.076 158.169L166.422 231.366L134 160.271L151.558 236.411L128.694 161.693L136.163 239.473L123.247 162.41L120.5 240.5L117.753 162.41L104.837 239.473L112.306 161.693L89.4417 236.411L107 160.271L74.578 231.366L101.924 158.169L60.5 224.423L97.166 155.422L47.4486 215.702L92.8075 152.077L35.6472 205.353L88.9227 148.193L25.2976 193.551L85.5783 143.834L16.5769 180.5L82.8313 139.076L9.63446 166.422L80.7289 134L4.58891 151.558L79.307 128.694L1.52662 136.163L78.5899 123.247L0.5 120.5L78.5899 117.753L1.52662 104.837L79.307 112.306L4.58891 89.4417L80.7289 107L9.63446 74.578L82.8313 101.924L16.5769 60.5L85.5783 97.166L25.2976 47.4486L88.9227 92.8075L35.6472 35.6472L92.8075 88.9227L47.4486 25.2976L97.166 85.5783L60.5 16.5769L101.924 82.8313L74.578 9.63446L107 80.7289L89.4417 4.58891L112.306 79.307L104.837 1.52662L117.753 78.5899L120.5 0.5Z" fill="url(#paint0_radial_709_159)"/>
<defs>
<radialGradient id="paint0_radial_709_159" cx="0" cy="0" r="1" gradientUnits="userSpaceOnUse" gradientTransform="translate(120.5 120.499) rotate(90) scale(97.5514 97.5514)">
<stop stop-color="#15040A"/>
<stop offset="1" stop-color="#15040A" stop-opacity="0.25"/>
</radialGradient>
</defs>
</svg>
