<svg width="96" height="96" viewBox="0 0 96 96" fill="none" xmlns="http://www.w3.org/2000/svg">
<path d="M47.0122 96L38.9023 81.9532C32.1009 70.1727 36.1371 55.1092 47.9176 48.3077L56.0275 62.3545C62.8289 74.135 58.7927 89.1986 47.0122 96Z" fill="url(#paint0_radial_858_428)"/>
<path d="M48.9877 0L57.0976 14.0468C63.8991 25.8273 59.8628 40.8908 48.0824 47.6923L39.9724 33.6455C33.171 21.865 37.2073 6.80144 48.9877 0Z" fill="url(#paint1_radial_858_428)"/>
<path d="M0 47.0125L14.0468 38.9025C25.8273 32.1011 40.8908 36.1374 47.6923 47.9178L33.6455 56.0277C21.865 62.8292 6.80144 58.7929 0 47.0125Z" fill="url(#paint2_radial_858_428)"/>
<path d="M96 48.9879L81.9532 57.0979C70.1727 63.8993 55.1092 59.863 48.3077 48.0826L62.3545 39.9727C74.135 33.1712 89.1986 37.2075 96 48.9879Z" fill="url(#paint3_radial_858_428)"/>
<defs>
<radialGradient id="paint0_radial_858_428" cx="0" cy="0" r="1" gradientUnits="userSpaceOnUse" gradientTransform="translate(48.6048 47.8911) rotate(-180) scale(54.254 58.5935)">
<stop stop-color="#15040A"/>
<stop offset="1" stop-color="#6BC047" stop-opacity="0.25"/>
</radialGradient>
<radialGradient id="paint1_radial_858_428" cx="0" cy="0" r="1" gradientUnits="userSpaceOnUse" gradientTransform="translate(48.6048 47.8911) rotate(-180) scale(54.254 58.5935)">
<stop stop-color="#15040A"/>
<stop offset="1" stop-color="#6BC047" stop-opacity="0.25"/>
</radialGradient>
<radialGradient id="paint2_radial_858_428" cx="0" cy="0" r="1" gradientUnits="userSpaceOnUse" gradientTransform="translate(48.6048 47.8911) rotate(-180) scale(54.254 58.5935)">
<stop stop-color="#15040A"/>
<stop offset="1" stop-color="#6BC047" stop-opacity="0.25"/>
</radialGradient>
<radialGradient id="paint3_radial_858_428" cx="0" cy="0" r="1" gradientUnits="userSpaceOnUse" gradientTransform="translate(48.6048 47.8911) rotate(-180) scale(54.254 58.5935)">
<stop stop-color="#15040A"/>
<stop offset="1" stop-color="#6BC047" stop-opacity="0.25"/>
</radialGradient>
</defs>
</svg>
