<svg width="241" height="241" viewBox="0 0 241 241" fill="none" xmlns="http://www.w3.org/2000/svg">
<path d="M120.5 0.5L146.214 51.9286H94.7857L120.5 0.5Z" fill="url(#paint0_radial_709_199)"/>
<path d="M120.5 103.357L146.214 51.9286H94.7857L120.5 103.357Z" fill="url(#paint1_radial_709_199)"/>
<path d="M120.5 137.643L146.214 189.071H94.7857L120.5 137.643Z" fill="url(#paint2_radial_709_199)"/>
<path d="M120.5 240.5L146.214 189.071H94.7857L120.5 240.5Z" fill="url(#paint3_radial_709_199)"/>
<path d="M0.5 120.5L51.9286 94.7857V146.214L0.5 120.5Z" fill="url(#paint4_radial_709_199)"/>
<path d="M103.357 120.5L51.9286 94.7857V146.214L103.357 120.5Z" fill="url(#paint5_radial_709_199)"/>
<path d="M137.643 120.5L189.071 94.7857V146.214L137.643 120.5Z" fill="url(#paint6_radial_709_199)"/>
<path d="M240.5 120.5L189.071 94.7857V146.214L240.5 120.5Z" fill="url(#paint7_radial_709_199)"/>
<path d="M35.6472 35.6473L90.1954 53.8301L53.83 90.1956L35.6472 35.6473Z" fill="url(#paint8_radial_709_199)"/>
<path d="M108.378 108.378L90.1954 53.8301L53.83 90.1956L108.378 108.378Z" fill="url(#paint9_radial_709_199)"/>
<path d="M132.622 132.622L187.17 150.805L150.805 187.17L132.622 132.622Z" fill="url(#paint10_radial_709_199)"/>
<path d="M205.353 205.353L187.17 150.805L150.805 187.17L205.353 205.353Z" fill="url(#paint11_radial_709_199)"/>
<path d="M205.353 35.6473L150.805 53.8301L187.17 90.1956L205.353 35.6473Z" fill="url(#paint12_radial_709_199)"/>
<path d="M132.622 108.378L150.805 53.8301L187.17 90.1956L132.622 108.378Z" fill="url(#paint13_radial_709_199)"/>
<path d="M108.378 132.622L53.8299 150.805L90.1954 187.17L108.378 132.622Z" fill="url(#paint14_radial_709_199)"/>
<path d="M35.6472 205.353L53.8299 150.805L90.1954 187.17L35.6472 205.353Z" fill="url(#paint15_radial_709_199)"/>
<defs>
<radialGradient id="paint0_radial_709_199" cx="0" cy="0" r="1" gradientUnits="userSpaceOnUse" gradientTransform="translate(120.5 120.499) rotate(90) scale(97.5514 97.5514)">
<stop stop-color="#15040A"/>
<stop offset="1" stop-color="#15040A" stop-opacity="0.25"/>
</radialGradient>
<radialGradient id="paint1_radial_709_199" cx="0" cy="0" r="1" gradientUnits="userSpaceOnUse" gradientTransform="translate(120.5 120.499) rotate(90) scale(97.5514 97.5514)">
<stop stop-color="#15040A"/>
<stop offset="1" stop-color="#15040A" stop-opacity="0.25"/>
</radialGradient>
<radialGradient id="paint2_radial_709_199" cx="0" cy="0" r="1" gradientUnits="userSpaceOnUse" gradientTransform="translate(120.5 120.499) rotate(90) scale(97.5514 97.5514)">
<stop stop-color="#15040A"/>
<stop offset="1" stop-color="#15040A" stop-opacity="0.25"/>
</radialGradient>
<radialGradient id="paint3_radial_709_199" cx="0" cy="0" r="1" gradientUnits="userSpaceOnUse" gradientTransform="translate(120.5 120.499) rotate(90) scale(97.5514 97.5514)">
<stop stop-color="#15040A"/>
<stop offset="1" stop-color="#15040A" stop-opacity="0.25"/>
</radialGradient>
<radialGradient id="paint4_radial_709_199" cx="0" cy="0" r="1" gradientUnits="userSpaceOnUse" gradientTransform="translate(120.5 120.499) rotate(90) scale(97.5514 97.5514)">
<stop stop-color="#15040A"/>
<stop offset="1" stop-color="#15040A" stop-opacity="0.25"/>
</radialGradient>
<radialGradient id="paint5_radial_709_199" cx="0" cy="0" r="1" gradientUnits="userSpaceOnUse" gradientTransform="translate(120.5 120.499) rotate(90) scale(97.5514 97.5514)">
<stop stop-color="#15040A"/>
<stop offset="1" stop-color="#15040A" stop-opacity="0.25"/>
</radialGradient>
<radialGradient id="paint6_radial_709_199" cx="0" cy="0" r="1" gradientUnits="userSpaceOnUse" gradientTransform="translate(120.5 120.499) rotate(90) scale(97.5514 97.5514)">
<stop stop-color="#15040A"/>
<stop offset="1" stop-color="#15040A" stop-opacity="0.25"/>
</radialGradient>
<radialGradient id="paint7_radial_709_199" cx="0" cy="0" r="1" gradientUnits="userSpaceOnUse" gradientTransform="translate(120.5 120.499) rotate(90) scale(97.5514 97.5514)">
<stop stop-color="#15040A"/>
<stop offset="1" stop-color="#15040A" stop-opacity="0.25"/>
</radialGradient>
<radialGradient id="paint8_radial_709_199" cx="0" cy="0" r="1" gradientUnits="userSpaceOnUse" gradientTransform="translate(120.5 120.499) rotate(90) scale(97.5514 97.5514)">
<stop stop-color="#15040A"/>
<stop offset="1" stop-color="#15040A" stop-opacity="0.25"/>
</radialGradient>
<radialGradient id="paint9_radial_709_199" cx="0" cy="0" r="1" gradientUnits="userSpaceOnUse" gradientTransform="translate(120.5 120.499) rotate(90) scale(97.5514 97.5514)">
<stop stop-color="#15040A"/>
<stop offset="1" stop-color="#15040A" stop-opacity="0.25"/>
</radialGradient>
<radialGradient id="paint10_radial_709_199" cx="0" cy="0" r="1" gradientUnits="userSpaceOnUse" gradientTransform="translate(120.5 120.499) rotate(90) scale(97.5514 97.5514)">
<stop stop-color="#15040A"/>
<stop offset="1" stop-color="#15040A" stop-opacity="0.25"/>
</radialGradient>
<radialGradient id="paint11_radial_709_199" cx="0" cy="0" r="1" gradientUnits="userSpaceOnUse" gradientTransform="translate(120.5 120.499) rotate(90) scale(97.5514 97.5514)">
<stop stop-color="#15040A"/>
<stop offset="1" stop-color="#15040A" stop-opacity="0.25"/>
</radialGradient>
<radialGradient id="paint12_radial_709_199" cx="0" cy="0" r="1" gradientUnits="userSpaceOnUse" gradientTransform="translate(120.5 120.499) rotate(90) scale(97.5514 97.5514)">
<stop stop-color="#15040A"/>
<stop offset="1" stop-color="#15040A" stop-opacity="0.25"/>
</radialGradient>
<radialGradient id="paint13_radial_709_199" cx="0" cy="0" r="1" gradientUnits="userSpaceOnUse" gradientTransform="translate(120.5 120.499) rotate(90) scale(97.5514 97.5514)">
<stop stop-color="#15040A"/>
<stop offset="1" stop-color="#15040A" stop-opacity="0.25"/>
</radialGradient>
<radialGradient id="paint14_radial_709_199" cx="0" cy="0" r="1" gradientUnits="userSpaceOnUse" gradientTransform="translate(120.5 120.499) rotate(90) scale(97.5514 97.5514)">
<stop stop-color="#15040A"/>
<stop offset="1" stop-color="#15040A" stop-opacity="0.25"/>
</radialGradient>
<radialGradient id="paint15_radial_709_199" cx="0" cy="0" r="1" gradientUnits="userSpaceOnUse" gradientTransform="translate(120.5 120.499) rotate(90) scale(97.5514 97.5514)">
<stop stop-color="#15040A"/>
<stop offset="1" stop-color="#15040A" stop-opacity="0.25"/>
</radialGradient>
</defs>
</svg>
