<svg width="321" height="320" viewBox="0 0 321 320" fill="none" xmlns="http://www.w3.org/2000/svg">
<path d="M160.5 0L194.786 68.5714H126.214L160.5 0Z" fill="url(#paint0_radial_709_199)" fill-opacity="0.4"/>
<path d="M160.5 137.143L194.786 68.5714H126.214L160.5 137.143Z" fill="url(#paint1_radial_709_199)" fill-opacity="0.4"/>
<path d="M160.5 182.857L194.786 251.429H126.214L160.5 182.857Z" fill="url(#paint2_radial_709_199)" fill-opacity="0.4"/>
<path d="M160.5 320L194.786 251.429H126.214L160.5 320Z" fill="url(#paint3_radial_709_199)" fill-opacity="0.4"/>
<path d="M0.5 160L69.0714 125.714V194.286L0.5 160Z" fill="url(#paint4_radial_709_199)" fill-opacity="0.4"/>
<path d="M137.643 160L69.0714 125.714V194.286L137.643 160Z" fill="url(#paint5_radial_709_199)" fill-opacity="0.4"/>
<path d="M183.357 160L251.929 125.714V194.286L183.357 160Z" fill="url(#paint6_radial_709_199)" fill-opacity="0.4"/>
<path d="M320.5 160L251.929 125.714V194.286L320.5 160Z" fill="url(#paint7_radial_709_199)" fill-opacity="0.4"/>
<path d="M47.3629 46.8631L120.094 71.1068L71.6066 119.594L47.3629 46.8631Z" fill="url(#paint8_radial_709_199)" fill-opacity="0.4"/>
<path d="M144.338 143.838L120.094 71.1068L71.6066 119.594L144.338 143.838Z" fill="url(#paint9_radial_709_199)" fill-opacity="0.4"/>
<path d="M176.662 176.163L249.393 200.406L200.906 248.894L176.662 176.163Z" fill="url(#paint10_radial_709_199)" fill-opacity="0.4"/>
<path d="M273.637 273.137L249.393 200.406L200.906 248.894L273.637 273.137Z" fill="url(#paint11_radial_709_199)" fill-opacity="0.4"/>
<path d="M273.637 46.8631L200.906 71.1068L249.393 119.594L273.637 46.8631Z" fill="url(#paint12_radial_709_199)" fill-opacity="0.4"/>
<path d="M176.662 143.838L200.906 71.1068L249.393 119.594L176.662 143.838Z" fill="url(#paint13_radial_709_199)" fill-opacity="0.4"/>
<path d="M144.338 176.163L71.6066 200.406L120.094 248.894L144.338 176.163Z" fill="url(#paint14_radial_709_199)" fill-opacity="0.4"/>
<path d="M47.3629 273.137L71.6066 200.406L120.094 248.894L47.3629 273.137Z" fill="url(#paint15_radial_709_199)" fill-opacity="0.4"/>
<defs>
<radialGradient id="paint0_radial_709_199" cx="0" cy="0" r="1" gradientUnits="userSpaceOnUse" gradientTransform="translate(160.5 159.999) rotate(90) scale(130.069 130.069)">
<stop stop-color="#15040A"/>
<stop offset="1" stop-color="#15040A" stop-opacity="0.25"/>
</radialGradient>
<radialGradient id="paint1_radial_709_199" cx="0" cy="0" r="1" gradientUnits="userSpaceOnUse" gradientTransform="translate(160.5 159.999) rotate(90) scale(130.069 130.069)">
<stop stop-color="#15040A"/>
<stop offset="1" stop-color="#15040A" stop-opacity="0.25"/>
</radialGradient>
<radialGradient id="paint2_radial_709_199" cx="0" cy="0" r="1" gradientUnits="userSpaceOnUse" gradientTransform="translate(160.5 159.999) rotate(90) scale(130.069 130.069)">
<stop stop-color="#15040A"/>
<stop offset="1" stop-color="#15040A" stop-opacity="0.25"/>
</radialGradient>
<radialGradient id="paint3_radial_709_199" cx="0" cy="0" r="1" gradientUnits="userSpaceOnUse" gradientTransform="translate(160.5 159.999) rotate(90) scale(130.069 130.069)">
<stop stop-color="#15040A"/>
<stop offset="1" stop-color="#15040A" stop-opacity="0.25"/>
</radialGradient>
<radialGradient id="paint4_radial_709_199" cx="0" cy="0" r="1" gradientUnits="userSpaceOnUse" gradientTransform="translate(160.5 159.999) rotate(90) scale(130.069 130.069)">
<stop stop-color="#15040A"/>
<stop offset="1" stop-color="#15040A" stop-opacity="0.25"/>
</radialGradient>
<radialGradient id="paint5_radial_709_199" cx="0" cy="0" r="1" gradientUnits="userSpaceOnUse" gradientTransform="translate(160.5 159.999) rotate(90) scale(130.069 130.069)">
<stop stop-color="#15040A"/>
<stop offset="1" stop-color="#15040A" stop-opacity="0.25"/>
</radialGradient>
<radialGradient id="paint6_radial_709_199" cx="0" cy="0" r="1" gradientUnits="userSpaceOnUse" gradientTransform="translate(160.5 159.999) rotate(90) scale(130.069 130.069)">
<stop stop-color="#15040A"/>
<stop offset="1" stop-color="#15040A" stop-opacity="0.25"/>
</radialGradient>
<radialGradient id="paint7_radial_709_199" cx="0" cy="0" r="1" gradientUnits="userSpaceOnUse" gradientTransform="translate(160.5 159.999) rotate(90) scale(130.069 130.069)">
<stop stop-color="#15040A"/>
<stop offset="1" stop-color="#15040A" stop-opacity="0.25"/>
</radialGradient>
<radialGradient id="paint8_radial_709_199" cx="0" cy="0" r="1" gradientUnits="userSpaceOnUse" gradientTransform="translate(160.5 159.999) rotate(90) scale(130.069 130.069)">
<stop stop-color="#15040A"/>
<stop offset="1" stop-color="#15040A" stop-opacity="0.25"/>
</radialGradient>
<radialGradient id="paint9_radial_709_199" cx="0" cy="0" r="1" gradientUnits="userSpaceOnUse" gradientTransform="translate(160.5 159.999) rotate(90) scale(130.069 130.069)">
<stop stop-color="#15040A"/>
<stop offset="1" stop-color="#15040A" stop-opacity="0.25"/>
</radialGradient>
<radialGradient id="paint10_radial_709_199" cx="0" cy="0" r="1" gradientUnits="userSpaceOnUse" gradientTransform="translate(160.5 159.999) rotate(90) scale(130.069 130.069)">
<stop stop-color="#15040A"/>
<stop offset="1" stop-color="#15040A" stop-opacity="0.25"/>
</radialGradient>
<radialGradient id="paint11_radial_709_199" cx="0" cy="0" r="1" gradientUnits="userSpaceOnUse" gradientTransform="translate(160.5 159.999) rotate(90) scale(130.069 130.069)">
<stop stop-color="#15040A"/>
<stop offset="1" stop-color="#15040A" stop-opacity="0.25"/>
</radialGradient>
<radialGradient id="paint12_radial_709_199" cx="0" cy="0" r="1" gradientUnits="userSpaceOnUse" gradientTransform="translate(160.5 159.999) rotate(90) scale(130.069 130.069)">
<stop stop-color="#15040A"/>
<stop offset="1" stop-color="#15040A" stop-opacity="0.25"/>
</radialGradient>
<radialGradient id="paint13_radial_709_199" cx="0" cy="0" r="1" gradientUnits="userSpaceOnUse" gradientTransform="translate(160.5 159.999) rotate(90) scale(130.069 130.069)">
<stop stop-color="#15040A"/>
<stop offset="1" stop-color="#15040A" stop-opacity="0.25"/>
</radialGradient>
<radialGradient id="paint14_radial_709_199" cx="0" cy="0" r="1" gradientUnits="userSpaceOnUse" gradientTransform="translate(160.5 159.999) rotate(90) scale(130.069 130.069)">
<stop stop-color="#15040A"/>
<stop offset="1" stop-color="#15040A" stop-opacity="0.25"/>
</radialGradient>
<radialGradient id="paint15_radial_709_199" cx="0" cy="0" r="1" gradientUnits="userSpaceOnUse" gradientTransform="translate(160.5 159.999) rotate(90) scale(130.069 130.069)">
<stop stop-color="#15040A"/>
<stop offset="1" stop-color="#15040A" stop-opacity="0.25"/>
</radialGradient>
</defs>
</svg>
