<svg width="96" height="96" viewBox="0 0 96 96" fill="none" xmlns="http://www.w3.org/2000/svg">
<path d="M48 0L49.0988 31.236L54.2653 0.410646L51.2775 31.5228L60.4233 1.63556L53.4002 32.0916L66.3688 3.65378L55.4304 32.9325L72 6.43078L57.3336 34.0313L77.2206 9.91904L59.077 35.3691L81.9411 14.0589L60.6309 36.923L86.081 18.7795L61.9687 38.6664L89.5692 24L63.0675 40.5696L92.3462 29.6312L63.9084 42.5998L94.3644 35.5767L64.4772 44.7225L95.5894 41.7347L64.764 46.9012L96 48L64.764 49.0988L95.5894 54.2653L64.4772 51.2775L94.3644 60.4233L63.9084 53.4002L92.3462 66.3688L63.0675 55.4304L89.5692 72L61.9687 57.3336L86.081 77.2206L60.6309 59.077L81.9411 81.9411L59.077 60.6309L77.2206 86.081L57.3336 61.9687L72 89.5692L55.4304 63.0675L66.3688 92.3462L53.4002 63.9084L60.4233 94.3644L51.2775 64.4772L54.2653 95.5894L49.0988 64.764L48 96L46.9012 64.764L41.7347 95.5894L44.7225 64.4772L35.5767 94.3644L42.5998 63.9084L29.6312 92.3462L40.5696 63.0675L24 89.5692L38.6664 61.9687L18.7795 86.081L36.923 60.6309L14.0589 81.9411L35.3691 59.077L9.91904 77.2206L34.0313 57.3336L6.43078 72L32.9325 55.4304L3.65378 66.3688L32.0916 53.4002L1.63556 60.4233L31.5228 51.2775L0.410646 54.2653L31.236 49.0988L0 48L31.236 46.9012L0.410646 41.7347L31.5228 44.7225L1.63556 35.5767L32.0916 42.5998L3.65378 29.6312L32.9325 40.5696L6.43078 24L34.0313 38.6664L9.91904 18.7795L35.3691 36.923L14.0589 14.0589L36.923 35.3691L18.7795 9.91904L38.6664 34.0313L24 6.43078L40.5696 32.9325L29.6312 3.65378L42.5998 32.0916L35.5767 1.63556L44.7225 31.5228L41.7347 0.410646L46.9012 31.236L48 0Z" fill="url(#paint0_radial_709_384)"/>
<defs>
<radialGradient id="paint0_radial_709_384" cx="0" cy="0" r="1" gradientUnits="userSpaceOnUse" gradientTransform="translate(48 47.9997) rotate(90) scale(34.5003 34.5003)">
<stop stop-color="#15040A"/>
<stop offset="1" stop-color="#4739E6" stop-opacity="0.25"/>
</radialGradient>
</defs>
</svg>
