<svg width="241" height="241" viewBox="0 0 241 241" fill="none" xmlns="http://www.w3.org/2000/svg">
<path d="M85.4628 86.5071C53.2348 55.1501 75.4344 0.5 120.4 0.5C165.365 0.5 187.565 55.1502 155.337 86.5071L120.4 120.5L85.4628 86.5071Z" fill="url(#paint0_radial_709_179)"/>
<path d="M85.663 154.493C53.435 185.85 75.6346 240.5 120.6 240.5C165.566 240.5 187.765 185.85 155.537 154.493L120.6 120.5L85.663 154.493Z" fill="url(#paint1_radial_709_179)"/>
<path d="M86.5071 155.537C55.1501 187.765 0.5 165.566 0.5 120.6C0.5 75.6345 55.1502 53.435 86.5071 85.6629L120.5 120.6L86.5071 155.537Z" fill="url(#paint2_radial_709_179)"/>
<path d="M154.493 155.337C185.85 187.565 240.5 165.365 240.5 120.4C240.5 75.4343 185.85 53.2348 154.493 85.4627L120.5 120.4L154.493 155.337Z" fill="url(#paint3_radial_709_179)"/>
<defs>
<radialGradient id="paint0_radial_709_179" cx="0" cy="0" r="1" gradientUnits="userSpaceOnUse" gradientTransform="translate(120.5 120.499) rotate(90) scale(97.5514 97.5514)">
<stop stop-color="#15040A"/>
<stop offset="1" stop-color="#15040A" stop-opacity="0.25"/>
</radialGradient>
<radialGradient id="paint1_radial_709_179" cx="0" cy="0" r="1" gradientUnits="userSpaceOnUse" gradientTransform="translate(120.5 120.499) rotate(90) scale(97.5514 97.5514)">
<stop stop-color="#15040A"/>
<stop offset="1" stop-color="#15040A" stop-opacity="0.25"/>
</radialGradient>
<radialGradient id="paint2_radial_709_179" cx="0" cy="0" r="1" gradientUnits="userSpaceOnUse" gradientTransform="translate(120.5 120.499) rotate(90) scale(97.5514 97.5514)">
<stop stop-color="#15040A"/>
<stop offset="1" stop-color="#15040A" stop-opacity="0.25"/>
</radialGradient>
<radialGradient id="paint3_radial_709_179" cx="0" cy="0" r="1" gradientUnits="userSpaceOnUse" gradientTransform="translate(120.5 120.499) rotate(90) scale(97.5514 97.5514)">
<stop stop-color="#15040A"/>
<stop offset="1" stop-color="#15040A" stop-opacity="0.25"/>
</radialGradient>
</defs>
</svg>
