<svg width="321" height="320" viewBox="0 0 321 320" fill="none" xmlns="http://www.w3.org/2000/svg">
<path d="M113.784 114.676C70.8131 72.8669 100.413 0 160.367 0C220.321 0 249.92 72.8669 206.949 114.676L160.367 160L113.784 114.676Z" fill="url(#paint0_radial_709_179)" fill-opacity="0.4"/>
<path d="M114.051 205.324C71.08 247.133 100.679 320 160.634 320C220.588 320 250.187 247.133 207.216 205.324L160.634 160L114.051 205.324Z" fill="url(#paint1_radial_709_179)" fill-opacity="0.4"/>
<path d="M115.176 206.716C73.3669 249.687 0.5 220.087 0.5 160.133C0.5 100.179 73.3669 70.58 115.176 113.551L160.5 160.133L115.176 206.716Z" fill="url(#paint2_radial_709_179)" fill-opacity="0.4"/>
<path d="M205.824 206.449C247.633 249.42 320.5 219.821 320.5 159.867C320.5 99.9125 247.633 70.313 205.824 113.284L160.5 159.867L205.824 206.449Z" fill="url(#paint3_radial_709_179)" fill-opacity="0.4"/>
<defs>
<radialGradient id="paint0_radial_709_179" cx="0" cy="0" r="1" gradientUnits="userSpaceOnUse" gradientTransform="translate(160.5 159.999) rotate(90) scale(130.069 130.069)">
<stop stop-color="#15040A"/>
<stop offset="1" stop-color="#15040A" stop-opacity="0.25"/>
</radialGradient>
<radialGradient id="paint1_radial_709_179" cx="0" cy="0" r="1" gradientUnits="userSpaceOnUse" gradientTransform="translate(160.5 159.999) rotate(90) scale(130.069 130.069)">
<stop stop-color="#15040A"/>
<stop offset="1" stop-color="#15040A" stop-opacity="0.25"/>
</radialGradient>
<radialGradient id="paint2_radial_709_179" cx="0" cy="0" r="1" gradientUnits="userSpaceOnUse" gradientTransform="translate(160.5 159.999) rotate(90) scale(130.069 130.069)">
<stop stop-color="#15040A"/>
<stop offset="1" stop-color="#15040A" stop-opacity="0.25"/>
</radialGradient>
<radialGradient id="paint3_radial_709_179" cx="0" cy="0" r="1" gradientUnits="userSpaceOnUse" gradientTransform="translate(160.5 159.999) rotate(90) scale(130.069 130.069)">
<stop stop-color="#15040A"/>
<stop offset="1" stop-color="#15040A" stop-opacity="0.25"/>
</radialGradient>
</defs>
</svg>
